<?xml version="1.0" encoding="utf-8"?>
<!-- Generator: Adobe Illustrator 25.2.3, SVG Export Plug-In . SVG Version: 6.00 Build 0)  -->
<svg version="1.1" id="Layer_1" xmlns="http://www.w3.org/2000/svg" xmlns:xlink="http://www.w3.org/1999/xlink" x="0px" y="0px"
	 width="1838.4px" height="803.8px" viewBox="0 0 1838.4 803.8" style="enable-background:new 0 0 1838.4 803.8;"
	 xml:space="preserve">
<style type="text/css">
	.st0{fill:#A3A3A3;}
	.st1{fill:#8ED3F5;}
	.st2{fill:#4B96D2;}
	.st3{fill:#307FC2;}
	.st4{fill:#165BAA;}
	.st5{fill:#1A4697;}
	.st6{fill:#FFFFFF;}
</style>
<rect x="127.8" y="398.3" class="st0" width="1582.7" height="7.1"/>
<circle class="st1" cx="127.8" cy="401.8" r="31"/>
<circle class="st2" cx="523.4" cy="401.8" r="31"/>
<circle class="st3" cx="919.1" cy="401.8" r="31"/>
<circle class="st4" cx="1314.8" cy="401.8" r="31"/>
<circle class="st5" cx="1710.4" cy="401.8" r="31"/>
<path class="st1" d="M37.4,37.4c49.9-49.9,130.8-49.9,180.8,0c49.9,49.9,49.9,130.7,0.1,180.6l0,0l-90.5,90.5L37.3,218l0,0
	C-12.5,168.2-12.5,87.3,37.4,37.4z"/>
<path class="st6" d="M65.7,65.7c-34.3,34.3-34.3,89.9,0,124.2s89.9,34.3,124.2,0s34.3-89.9,0-124.2C155.5,31.4,100,31.4,65.7,65.7z"
	/>
<path class="st4" d="M1405.1,766.3c-49.9,49.9-130.8,49.9-180.8,0c-49.9-49.9-49.9-130.7-0.1-180.7l0,0l90.5-90.5l90.5,90.5l0,0
	C1455,635.5,1455,716.4,1405.1,766.3z"/>
<path class="st6" d="M1252.6,613.8c-34.3,34.3-34.3,89.9,0,124.2s89.9,34.3,124.2,0c34.3-34.3,34.3-89.9,0-124.2
	C1342.5,579.5,1286.9,579.5,1252.6,613.8z"/>
<path class="st3" d="M828.7,37.4c49.9-49.9,130.8-49.9,180.8,0c49.9,49.9,49.9,130.7,0.1,180.6l0,0l-90.5,90.5l-90.5-90.4l0,0
	C778.8,168.2,778.8,87.3,828.7,37.4z"/>
<path class="st6" d="M857,65.7c-34.3,34.3-34.3,89.9,0,124.2s89.9,34.3,124.2,0c34.3-34.3,34.3-89.9,0-124.2
	C946.9,31.4,891.3,31.4,857,65.7z"/>
<path class="st2" d="M613.8,766.3c-49.9,49.9-130.8,49.9-180.8,0c-49.9-49.9-49.9-130.7-0.1-180.7l0,0l90.5-90.5l90.5,90.5l0,0
	C663.7,635.5,663.7,716.4,613.8,766.3z"/>
<path class="st6" d="M461.3,613.8c-34.3,34.3-34.3,89.9,0,124.2s89.9,34.3,124.2,0s34.3-89.9,0-124.2
	C551.2,579.5,495.6,579.5,461.3,613.8z"/>
<path class="st5" d="M1620.1,37.4c49.9-49.9,130.8-49.9,180.8,0c49.9,49.9,49.9,130.7,0.1,180.6l0,0l-90.5,90.5L1620,218l0,0
	C1570.1,168.2,1570.2,87.3,1620.1,37.4z"/>
<path class="st6" d="M1648.4,65.7c-34.3,34.3-34.3,89.9,0,124.2s89.9,34.3,124.2,0c34.3-34.3,34.3-89.9,0-124.2
	C1738.2,31.4,1682.6,31.4,1648.4,65.7z"/>
<g>
	<path d="M100.8,148.6c-3.5-2.3-6.3-5.6-8.3-9.9c-2-4.3-3-9.5-3-15.5c0-6,1-11.1,3-15.5c2-4.3,4.8-7.7,8.3-9.9
		c3.5-2.3,7.5-3.4,12-3.4s8.5,1.1,12,3.4c3.5,2.3,6.3,5.6,8.4,9.9c2,4.3,3,9.5,3,15.5c0,6-1,11.1-3,15.5c-2,4.3-4.8,7.7-8.4,9.9
		c-3.5,2.3-7.6,3.4-12,3.4S104.3,150.9,100.8,148.6z M122.2,138c2.3-3.3,3.5-8.2,3.5-14.8s-1.2-11.5-3.5-14.8c-2.3-3.3-5.5-5-9.5-5
		c-3.9,0-7.1,1.7-9.4,5c-2.3,3.3-3.5,8.2-3.5,14.8s1.2,11.5,3.5,14.8c2.3,3.3,5.5,5,9.4,5C116.8,143,119.9,141.3,122.2,138z"/>
	<path d="M162.2,95.2v56h-10.4v-47.3H140v-8.7H162.2z"/>
</g>
<g>
	<path d="M884.2,148.6c-3.5-2.3-6.3-5.6-8.3-9.9c-2-4.3-3-9.5-3-15.5c0-6,1-11.1,3-15.5c2-4.3,4.8-7.7,8.3-9.9
		c3.5-2.3,7.5-3.4,12-3.4c4.5,0,8.5,1.1,12,3.4c3.5,2.3,6.3,5.6,8.4,9.9c2,4.3,3,9.5,3,15.5c0,6-1,11.1-3,15.5
		c-2,4.3-4.8,7.7-8.4,9.9c-3.5,2.3-7.6,3.4-12,3.4C891.7,152,887.7,150.9,884.2,148.6z M905.7,138c2.3-3.3,3.5-8.2,3.5-14.8
		s-1.2-11.5-3.5-14.8c-2.3-3.3-5.5-5-9.5-5c-3.9,0-7.1,1.7-9.4,5c-2.3,3.3-3.5,8.2-3.5,14.8s1.2,11.5,3.5,14.8c2.3,3.3,5.5,5,9.4,5
		C900.2,143,903.4,141.3,905.7,138z"/>
	<path d="M961.6,123.6c2.7,2.9,4.1,6.5,4.1,10.8c0,3.3-0.8,6.2-2.5,8.9c-1.7,2.7-4.1,4.8-7.5,6.4c-3.3,1.6-7.4,2.4-12.2,2.4
		c-4,0-7.9-0.6-11.6-1.7c-3.7-1.1-6.9-2.7-9.5-4.8l4.5-8.1c2,1.7,4.5,3.1,7.4,4c2.9,1,5.9,1.5,9,1.5c3.7,0,6.6-0.8,8.7-2.3
		c2.1-1.5,3.2-3.6,3.2-6.2c0-2.6-1-4.7-3-6.1c-2-1.5-5.1-2.2-9.2-2.2h-5.1v-7.1l12.7-15.1h-25.4v-8.7h38.2v7l-13.6,16.2
		C954.9,119,958.9,120.7,961.6,123.6z"/>
</g>
<g>
	<path d="M488.3,696.7c-3.5-2.3-6.3-5.6-8.3-9.9c-2-4.3-3-9.5-3-15.5c0-6,1-11.1,3-15.5c2-4.3,4.8-7.7,8.3-9.9
		c3.5-2.3,7.5-3.4,12-3.4s8.5,1.1,12,3.4c3.5,2.3,6.3,5.6,8.4,9.9c2,4.3,3,9.5,3,15.5c0,6-1,11.1-3,15.5c-2,4.3-4.8,7.7-8.4,9.9
		c-3.5,2.3-7.6,3.4-12,3.4S491.8,699,488.3,696.7z M509.8,686.1c2.3-3.3,3.5-8.2,3.5-14.8s-1.2-11.5-3.5-14.8c-2.3-3.3-5.5-5-9.5-5
		c-3.9,0-7.1,1.7-9.4,5c-2.3,3.3-3.5,8.2-3.5,14.8s1.2,11.5,3.5,14.8c2.3,3.3,5.5,5,9.4,5C504.3,691.1,507.5,689.4,509.8,686.1z"/>
	<path d="M571,690.5v8.8h-41.3v-7l22.2-21.1c2.5-2.4,4.2-4.5,5.1-6.3c0.9-1.8,1.3-3.6,1.3-5.3c0-2.6-0.9-4.6-2.6-6
		c-1.8-1.4-4.3-2.1-7.8-2.1c-5.7,0-10.1,1.9-13.1,5.8l-7.3-5.6c2.2-2.9,5.1-5.2,8.8-6.8c3.7-1.6,7.9-2.4,12.4-2.4
		c6.1,0,10.9,1.4,14.6,4.3c3.6,2.9,5.4,6.8,5.4,11.8c0,3-0.6,5.9-1.9,8.6c-1.3,2.7-3.7,5.7-7.4,9.1l-15,14.2H571z"/>
</g>
<g>
	<path d="M1275.5,696.7c-3.5-2.3-6.3-5.6-8.3-9.9c-2-4.3-3-9.5-3-15.5c0-6,1-11.1,3-15.5c2-4.3,4.8-7.7,8.3-9.9
		c3.5-2.3,7.5-3.4,12-3.4c4.5,0,8.5,1.1,12,3.4c3.5,2.3,6.3,5.6,8.4,9.9c2,4.3,3,9.5,3,15.5c0,6-1,11.1-3,15.5
		c-2,4.3-4.8,7.7-8.4,9.9c-3.5,2.3-7.6,3.4-12,3.4C1283.1,700.1,1279.1,699,1275.5,696.7z M1297,686.1c2.3-3.3,3.5-8.2,3.5-14.8
		s-1.2-11.5-3.5-14.8c-2.3-3.3-5.5-5-9.5-5c-3.9,0-7.1,1.7-9.4,5c-2.3,3.3-3.5,8.2-3.5,14.8s1.2,11.5,3.5,14.8c2.3,3.3,5.5,5,9.4,5
		C1291.5,691.1,1294.7,689.4,1297,686.1z"/>
	<path d="M1367.9,686.6h-9.9v12.7h-10.1v-12.7h-30.7v-7.2l27.6-36.1h11.1l-26,34.5h18.3v-11.3h9.8v11.3h9.9V686.6z"/>
</g>
<g>
	<path d="M1675.1,148.6c-3.5-2.3-6.3-5.6-8.3-9.9c-2-4.3-3-9.5-3-15.5c0-6,1-11.1,3-15.5c2-4.3,4.8-7.7,8.3-9.9
		c3.5-2.3,7.5-3.4,12-3.4c4.5,0,8.5,1.1,12,3.4c3.5,2.3,6.3,5.6,8.4,9.9c2,4.3,3,9.5,3,15.5c0,6-1,11.1-3,15.5
		c-2,4.3-4.8,7.7-8.4,9.9c-3.5,2.3-7.6,3.4-12,3.4C1682.7,152,1678.7,150.9,1675.1,148.6z M1696.6,138c2.3-3.3,3.5-8.2,3.5-14.8
		s-1.2-11.5-3.5-14.8c-2.3-3.3-5.5-5-9.5-5c-3.9,0-7.1,1.7-9.4,5c-2.3,3.3-3.5,8.2-3.5,14.8s1.2,11.5,3.5,14.8c2.3,3.3,5.5,5,9.4,5
		C1691.1,143,1694.3,141.3,1696.6,138z"/>
	<path d="M1752.7,121.5c3.8,3.1,5.7,7.2,5.7,12.5c0,3.4-0.8,6.4-2.5,9.1c-1.7,2.7-4.1,4.9-7.4,6.5c-3.3,1.6-7.4,2.4-12.2,2.4
		c-4,0-7.9-0.6-11.6-1.7c-3.7-1.1-6.9-2.7-9.4-4.8l4.4-8.1c2.1,1.7,4.6,3.1,7.5,4c2.9,1,5.9,1.5,9,1.5c3.7,0,6.6-0.8,8.7-2.3
		c2.1-1.5,3.2-3.6,3.2-6.3c0-2.9-1.1-5.1-3.4-6.5c-2.3-1.5-6.1-2.2-11.6-2.2h-13.5l2.9-30.5h32.9v8.7H1731l-1.2,13h5.4
		C1743,116.9,1748.9,118.4,1752.7,121.5z"/>
</g>
</svg>
