<?xml version="1.0" encoding="utf-8"?>
<!-- Generator: Adobe Illustrator 25.2.3, SVG Export Plug-In . SVG Version: 6.00 Build 0)  -->
<svg version="1.1" id="Capa_1" xmlns="http://www.w3.org/2000/svg" xmlns:xlink="http://www.w3.org/1999/xlink" x="0px" y="0px"
	 width="512px" height="512px" viewBox="0 0 512 512" style="enable-background:new 0 0 512 512;" xml:space="preserve">
<style type="text/css">
	.st0{fill:#00A0E0;}
</style>
<g>
	<g>
		<path class="st0" d="M150.2,376l-64-27.2c-8.1-3.5-17.5,0.4-21,8.5s0.3,17.5,8.5,21l64,27.2c2,0.9,4.2,1.3,6.2,1.3
			c6.2,0,12.1-3.6,14.7-9.8C162.2,388.8,158.4,379.4,150.2,376z"/>
	</g>
</g>
<g>
	<g>
		<path class="st0" d="M511.8,111.3c-0.1-1.6-0.2-3.3-0.8-4.9c-0.4-0.9-1-1.6-1.5-2.4c-0.4-0.6-0.6-1.1-1-1.6
			c-1.8-2.3-4-4.1-6.7-5.2c-0.1,0-0.1-0.1-0.2-0.2l-256-96c-3.9-1.5-8.1-1.4-11.9,0.2l-224,96c-0.2,0.1-0.3,0.4-0.5,0.4
			c-2.2,1.1-4.1,2.7-5.6,4.7c-0.4,0.6-0.8,1.1-1.2,1.7c-0.3,0.5-0.8,0.9-1.1,1.5c-0.9,2-1.3,4.2-1.3,6.3v0v288
			c0,6.4,3.8,12.2,9.7,14.7l224,96h0c2,0.8,4.1,1.3,6.3,1.3c1.9,0,3.8-0.4,5.6-1l0.6-0.2c0,0,0,0,0,0L501.6,415
			c6.2-2.3,10.4-8.3,10.4-15V112C512,111.7,511.8,111.5,511.8,111.3z M224,471.7L32,389.4V136.3l192,82.3V471.7z M240.4,190.7
			L56.6,112l183.7-78.7l210,78.7l-50.1,18.8l-89.8-40.2c-4.5-2-9.7-1.8-14,0.5l-62.8,26.7c-5.9,2.5-9.8,8.4-9.8,14.8
			c0,6.5,3.9,12.3,9.9,14.8l58.2,24L240.4,190.7z M352,183.1l32-12v78l-32,12V183.1z M336.1,154.9l-54.7-22.6l22.7-9.6l53.8,24.1
			L336.1,154.9z M480,388.9l-224,84V219.1l64-24v89.1c0,5.2,2.6,10.1,6.9,13.2c2.7,1.9,5.9,2.8,9.1,2.8c1.9,0,3.8-0.4,5.6-1l64-24
			c6.2-2.4,10.4-8.3,10.4-15V159.1l64-24V388.9z"/>
	</g>
</g>
</svg>
