<?xml version="1.0" encoding="utf-8"?>
<!-- Generator: Adobe Illustrator 25.2.3, SVG Export Plug-In . SVG Version: 6.00 Build 0)  -->
<svg version="1.1" id="_x31__x2C_5" xmlns="http://www.w3.org/2000/svg" xmlns:xlink="http://www.w3.org/1999/xlink" x="0px"
	 y="0px" width="512px" height="512px" viewBox="0 0 512 512" style="enable-background:new 0 0 512 512;" xml:space="preserve">
<style type="text/css">
	.st0{fill:#00A0E0;}
</style>
<path class="st0" d="M410.7,432H101.3c-8.8,0-16-7.2-16-16c0-8.8,7.2-16,16-16h309.3c8.8,0,16,7.2,16,16
	C426.7,424.8,419.5,432,410.7,432z"/>
<path class="st0" d="M368,512H144c-32.4,0-58.7-26.3-58.7-58.7V266.4c0-8.8,7.2-16,16-16s16,7.2,16,16v186.9
	c0,14.7,12,26.7,26.7,26.7h224c14.7,0,26.7-12,26.7-26.7V224.7c0-8.8,7.2-16,16-16c8.8,0,16,7.2,16,16v228.7
	C426.7,485.7,400.4,512,368,512z"/>
<path class="st0" d="M101.3,219.8c-8.8,0-16-7.2-16-16V58.7C85.3,26.3,111.6,0,144,0h224c32.4,0,58.7,26.3,58.7,58.7v103.4
	c0,8.8-7.2,16-16,16c-8.8,0-16-7.2-16-16V58.7c0-14.7-12-26.7-26.7-26.7H144c-14.7,0-26.7,12-26.7,26.7v145.2
	C117.3,212.7,110.2,219.8,101.3,219.8z"/>
<path class="st0" d="M101.3,224c-6.3,0-12.2-3.7-14.8-9.9c-3.4-8.2,0.5-17.5,8.7-20.9l103.1-42.7c4.4-1.8,9.2-1.6,13.5,0.6
	l76.4,39.5l117.2-40.4c8.4-2.9,17.5,1.6,20.3,9.9c2.9,8.4-1.6,17.5-9.9,20.3l-123.7,42.7c-4.1,1.4-8.7,1.1-12.6-0.9L203.7,183
	l-96.2,39.8C105.5,223.6,103.4,224,101.3,224L101.3,224z"/>
<path class="st0" d="M40,218.7H16c-8.8,0-16-7.2-16-16s7.2-16,16-16h24c8.8,0,16,7.2,16,16S48.8,218.7,40,218.7z"/>
<path class="st0" d="M496,218.7h-24c-8.8,0-16-7.2-16-16s7.2-16,16-16h24c8.8,0,16,7.2,16,16S504.8,218.7,496,218.7z"/>
<path class="st0" d="M44.8,129.1c-5.2-7-15.3-8.5-22.4-3.2c-7.1,5.3-8.5,15.3-3.2,22.4l16,21.3c3.1,4.2,7.9,6.4,12.8,6.4
	c3.3,0,6.7-1,9.6-3.2c7.1-5.3,8.5-15.3,3.2-22.4L44.8,129.1z"/>
<path class="st0" d="M35.2,235.7l-16,21.3c-5.3,7.1-3.9,17.1,3.2,22.4c2.9,2.2,6.3,3.2,9.6,3.2c4.9,0,9.7-2.2,12.8-6.4l16-21.3
	c5.3-7.1,3.9-17.1-3.2-22.4C50.5,227.2,40.4,228.7,35.2,235.7L35.2,235.7z"/>
<path class="st0" d="M467.2,129.1l-16,21.3c-5.3,7.1-3.9,17.1,3.2,22.4c2.9,2.2,6.3,3.2,9.6,3.2c4.9,0,9.7-2.2,12.8-6.4l16-21.3
	c5.3-7.1,3.9-17.1-3.2-22.4C482.5,120.5,472.4,122,467.2,129.1L467.2,129.1z"/>
<path class="st0" d="M476.8,235.7c-5.2-7.1-15.3-8.5-22.4-3.2c-7.1,5.3-8.5,15.3-3.2,22.4l16,21.3c3.1,4.2,7.9,6.4,12.8,6.4
	c3.3,0,6.7-1,9.6-3.2c7.1-5.3,8.5-15.3,3.2-22.4L476.8,235.7z"/>
</svg>
