<?xml version="1.0" encoding="utf-8"?>
<!-- Generator: Adobe Illustrator 25.2.1, SVG Export Plug-In . SVG Version: 6.00 Build 0)  -->
<svg version="1.1" id="Layer_1" xmlns="http://www.w3.org/2000/svg" xmlns:xlink="http://www.w3.org/1999/xlink" x="0px" y="0px"
	 width="139.5px" height="121.9px" viewBox="0 0 139.5 121.9" style="enable-background:new 0 0 139.5 121.9;" xml:space="preserve"
	>
<style type="text/css">
	.st0{fill:#CBCCCC;}
</style>
<g>
	<path class="st0" d="M124.8,92.4c-7.1,0-13.1,5-14.5,11.7h-3.2c1.4-5.2,6.9-19.5,25.3-14.3l2.4-5.4c0,0-29.4-9.9-35,19.6l-51.4-0.5
		L26.9,78.3l0.6-3l1.7-8.9l9.2-36.2c0,0,1.5-4.4-3-4.9c0,0-4.7-1-5.5,2L21,63.7l-2.1,9.6l-4.5,19C6.4,92.5,0,99,0,107.1
		c0,8.2,6.6,14.8,14.8,14.8s14.8-6.6,14.8-14.8c0-5.2-2.7-9.8-6.8-12.4l1.6-6.4l18.5,21.5h67.3c1.3,6.8,7.3,12,14.5,12
		c8.2,0,14.8-6.6,14.8-14.8C139.5,99,132.9,92.4,124.8,92.4z M22.1,107.1c0,4.1-3.3,7.4-7.4,7.4s-7.4-3.3-7.4-7.4
		c0-3.3,2.2-6.1,5.2-7.1l-0.7,3c0,0-1.8,6.3,2.9,7.3c0,0,4,0.8,5.3-4.7l0.7-2.8C21.6,104,22.1,105.5,22.1,107.1z M124.7,114.4
		c-3.1,0-5.7-1.9-6.8-4.5h6.5c0,0,3.5,0,3.5-2.9c0,0,0.5-2.8-3.8-2.8l-6.2-0.1c1.1-2.6,3.7-4.5,6.8-4.5c4.1,0,7.4,3.3,7.4,7.4
		C132.1,111.1,128.8,114.4,124.7,114.4z"/>
	<path class="st0" d="M33.2,13.7l-1.3,8.1c0,0,4.9-1.2,7.9,0.4l2.2-11l10.7-4.3c0,0,1.8-1.2,0.8-4.1c0,0-1.7-3.5-3.6-2.7L31.1,7.9
		c0,0-2.4,1.4-0.6,4.3C30.3,12.2,31.2,14.3,33.2,13.7z"/>
</g>
<polygon class="st0" points="32.5,57.1 21.3,57.1 19.7,65.4 30.8,65.7 "/>
</svg>
