<?xml version="1.0" encoding="utf-8"?>
<!-- Generator: Adobe Illustrator 25.2.1, SVG Export Plug-In . SVG Version: 6.00 Build 0)  -->
<svg version="1.1" id="Layer_1" xmlns="http://www.w3.org/2000/svg" xmlns:xlink="http://www.w3.org/1999/xlink" x="0px" y="0px"
	 width="512px" height="512px" viewBox="0 0 512 512" style="enable-background:new 0 0 512 512;" xml:space="preserve">
<style type="text/css">
	.st0{fill:#CBCCCC;}
</style>
<path class="st0" d="M293.1,0H56.6C25.4,0,0,25.4,0,56.6v398.8C0,486.6,25.4,512,56.6,512h236.5c31.2,0,56.6-25.4,56.6-56.6V56.6
	C349.7,25.4,324.3,0,293.1,0z M125.1,30h99.5v11.5c0,2.3-1.9,4.2-4.2,4.2h-91.1c-2.3,0-4.2-1.9-4.2-4.2V30z M319.7,455.4
	c0,14.7-11.9,26.6-26.6,26.6H56.6C41.9,482,30,470.1,30,455.4V56.6C30,41.9,41.9,30,56.6,30h38.5v11.5c0,18.8,15.3,34.2,34.2,34.2
	h91.1c18.8,0,34.2-15.3,34.2-34.2V30h38.5c14.7,0,26.6,11.9,26.6,26.6V455.4z"/>
<path class="st0" d="M214.8,432.5h-79.9c-8.3,0-15,6.7-15,15c0,8.3,6.7,15,15,15h79.9c8.3,0,15-6.7,15-15
	C229.8,439.2,223.1,432.5,214.8,432.5z"/>
<path class="st0" d="M486.9,317.3l0.3-167.5l21.4-28c3.2-4.2,4.2-9.8,2.5-14.8l-31.9-96c-2.2-6.6-8.3-11-15.2-11l-30.8,0
	c-6.9,0-13,4.4-15.2,11l-32.1,96c-1.7,5.1-0.8,10.6,2.5,14.9l21.4,27.9l-0.3,167.6c-13.8,3.2-24.1,15.6-24.1,30.3l0,100.3
	c0,34.9,28,63.5,62.4,63.9c0.2,0,0.5,0,0.7,0c16.7,0,32.5-6.5,44.4-18.2c12.1-12,18.8-27.9,18.8-45l0-101c0-8.3-3.2-16.1-9.1-22
	C498.2,321.4,492.8,318.5,486.9,317.3z M443.2,30H454l26.4,79.5l-19.8,25.9c-2.1,2.8-3.3,6.2-3.3,9.7l-0.3,171.5h-17.5l0.3-171.5
	c0-3.5-1.2-7-3.3-9.8l-19.8-25.8L443.2,30z M481.7,448.8c0,9-3.5,17.4-9.9,23.7c-6.3,6.3-14.8,9.6-23.7,9.6
	c-18.1-0.2-32.8-15.4-32.8-33.9l0-100.3c0-0.6,0.5-1.1,1.1-1.1l64.2,0c0.1,0,0.4,0,0.8,0.3c0.3,0.3,0.3,0.7,0.3,0.8L481.7,448.8z"/>
<path class="st0" d="M174.9,134.2c-67.1,0-121.7,54.6-121.7,121.8s54.6,121.8,121.7,121.8S296.6,323.2,296.6,256
	S242,134.2,174.9,134.2z M174.9,347.8c-50.6,0-91.7-41.2-91.7-91.8s41.1-91.8,91.7-91.8s91.7,41.2,91.7,91.8
	S225.4,347.8,174.9,347.8z"/>
<path class="st0" d="M205.7,214.7l-55.8,55.9L134,254.8c-5.9-5.9-15.4-5.9-21.2,0c-5.9,5.9-5.9,15.4,0,21.2l19.4,19.4
	c4.7,4.7,11,7.3,17.7,7.3h0c6.7,0,12.9-2.6,17.7-7.3l59.4-59.4c5.9-5.9,5.9-15.4,0-21.2C221,208.9,211.5,208.9,205.7,214.7z"/>
</svg>
