<?xml version="1.0" encoding="utf-8"?>
<!-- Generator: Adobe Illustrator 25.2.3, SVG Export Plug-In . SVG Version: 6.00 Build 0)  -->
<svg version="1.1" id="Layer_1" xmlns="http://www.w3.org/2000/svg" xmlns:xlink="http://www.w3.org/1999/xlink" x="0px" y="0px"
	 width="512px" height="512px" viewBox="0 0 512 512" style="enable-background:new 0 0 512 512;" xml:space="preserve">
<style type="text/css">
	.st0{fill:#00A0E0;}
</style>
<path class="st0" d="M375,220c-11,0-20-9-20-20c0-5.5-4.5-10-10-10s-10,4.5-10,10c0,11-9,20-20,20s-20-9-20-20c0-27.6,22.4-50,50-50
	s50,22.4,50,50C395,211,386,220,375,220z M218,200c0-27.6-22.4-50-50-50s-50,22.4-50,50c0,11,9,20,20,20s20-9,20-20
	c0-5.5,4.5-10,10-10s10,4.5,10,10c0,11,9,20,20,20S218,211,218,200z M388.5,475.1c9.4-5.7,12.5-18,6.7-27.5
	c-5.7-9.4-18-12.5-27.5-6.7C334.1,461.2,295.5,472,256,472c-119.1,0-216-96.9-216-216S136.9,40,256,40s216,96.9,216,216
	c0,42.6-12.7,84-36.6,119.9c-6.1,9.2-3.7,21.6,5.5,27.7c9.2,6.1,21.6,3.7,27.7-5.5C497,355.7,512,306.5,512,256
	c0-68.4-26.6-132.7-75-181C388.7,26.6,324.4,0,256,0S123.3,26.6,75,75C26.6,123.3,0,187.6,0,256s26.6,132.7,75,181
	c48.4,48.4,112.6,75,181,75C302.8,512,348.6,499.2,388.5,475.1z M342,291c-6.5,0-12.3,3.1-15.9,7.9c0,0-26,28.1-70.1,28.1
	s-70.1-28.1-70.1-28.1c-3.7-4.8-9.4-7.9-15.9-7.9c-11,0-20,9-20,20c0,5.7,2.4,10.8,6.2,14.5c3.6,4,39.1,41.5,99.8,41.5
	s96.2-37.5,99.8-41.5c3.8-3.6,6.2-8.8,6.2-14.5C362,300,353,291,342,291z"/>
</svg>
