<?xml version="1.0" encoding="utf-8"?>
<!-- Generator: Adobe Illustrator 25.2.3, SVG Export Plug-In . SVG Version: 6.00 Build 0)  -->
<svg version="1.1" id="Capa_1" xmlns="http://www.w3.org/2000/svg" xmlns:xlink="http://www.w3.org/1999/xlink" x="0px" y="0px"
	 width="512px" height="512px" viewBox="0 0 512 512" style="enable-background:new 0 0 512 512;" xml:space="preserve">
<style type="text/css">
	.st0{fill:#00A0E0;}
</style>
<g>
	<g>
		<g>
			<path class="st0" d="M391.8,48.9l54.3,45.3c3.7,3.1,8.3,4.6,12.8,4.6c5.7,0,11.4-2.4,15.4-7.2c7.1-8.5,5.9-21.1-2.6-28.2
				l-54.3-45.3c-8.5-7.1-21.1-5.9-28.2,2.6C382.2,29.2,383.4,41.8,391.8,48.9z"/>
			<path class="st0" d="M53.1,98.8c4.5,0,9.1-1.5,12.8-4.6l54.3-45.3c8.5-7.1,9.6-19.7,2.6-28.2c-7.1-8.5-19.7-9.6-28.2-2.6
				L40.2,63.4c-8.5,7.1-9.6,19.7-2.6,28.2C41.6,96.3,47.3,98.8,53.1,98.8z"/>
			<path class="st0" d="M422.9,109.1C383.1,69.3,331.5,45.5,276,40.8V20c0-11-9-20-20-20c-11,0-20,9-20,20v20.8
				c-55.5,4.6-107.1,28.4-146.9,68.3C44.5,153.7,20,213,20,276s24.5,122.3,69.1,166.9C133.7,487.5,193,512,256,512
				c50.8,0,99.1-15.9,139.9-45.9c8.9-6.6,10.8-19.1,4.2-28c-6.6-8.9-19.1-10.8-28-4.2c-33.8,24.9-74,38.1-116.1,38.1
				c-108.1,0-196-87.9-196-196S147.9,80,256,80s196,87.9,196,196c0,33-8.4,65.6-24.2,94.4c-5.3,9.7-1.8,21.8,7.9,27.2
				c9.7,5.3,21.8,1.8,27.2-7.9C481.9,355,492,315.7,492,276C492,213,467.5,153.7,422.9,109.1z"/>
			<path class="st0" d="M353.4,155.6c-8.6-6.9-21.2-5.6-28.1,3l-63.1,77.9c-2-0.3-4.1-0.5-6.2-0.5c-22.1,0-40,17.9-40,40
				s17.9,40,40,40s40-17.9,40-40c0-5.1-1-9.9-2.7-14.3l63.1-77.9C363.3,175.1,362,162.5,353.4,155.6z"/>
		</g>
	</g>
</g>
</svg>
