<?xml version="1.0" encoding="utf-8"?>
<!-- Generator: Adobe Illustrator 25.2.1, SVG Export Plug-In . SVG Version: 6.00 Build 0)  -->
<svg version="1.1" id="Layer_1" xmlns="http://www.w3.org/2000/svg" xmlns:xlink="http://www.w3.org/1999/xlink" x="0px" y="0px"
	 width="157.8px" height="147.2px" viewBox="0 0 157.8 147.2" style="enable-background:new 0 0 157.8 147.2;" xml:space="preserve"
	>
<style type="text/css">
	.st0{fill:#CBCCCC;}
</style>
<g>
	<path class="st0" d="M140.7,0H17.1C7.7,0,0,7.7,0,17.1v113c0,9.4,7.7,17.1,17.1,17.1h123.6c9.4,0,17.1-7.7,17.1-17.1v-113
		C157.9,7.8,150.2,0,140.7,0z M8.3,15.1c0-5.7,6.5-6.2,6.5-6.2h128.3c6.2,0,5.5,6.2,5.5,6.2v8H8.3V15.1z M148.6,29.3V116H8.3V29.3
		H148.6z M143.1,138.3H15.8c-8.4,0-7.5-7.5-7.5-7.5v-8.6h140.3v10.6C148.6,139,143.1,138.3,143.1,138.3z"/>
	<circle class="st0" cx="78.3" cy="129.8" r="4.2"/>
</g>
</svg>
